<svg xmlns="http://www.w3.org/2000/svg" viewBox="0 0 1024 1024">
<circle cx="512" cy="512" r="512" fill="white"/>
<path fill="oklch(0.5 0.17 145)" d="
M222.783539,444.018982
	C218.508713,432.991211 217.127365,422.030365 219.825027,410.843414
	C223.299896,396.433411 236.962616,385.124908 250.985245,384.667725
	C268.750275,384.088531 281.558289,392.333496 286.441132,407.911072
	C290.019714,419.327606 287.670959,430.303864 282.876465,440.878296
	C279.896973,447.449646 275.756317,453.283386 270.898987,458.619446
	C269.688873,459.948730 268.114960,461.034912 267.421692,463.633667
	C274.154266,468.775604 281.793304,472.347839 290.701752,474.559235
	C292.306366,468.272217 293.689636,462.176483 295.420135,456.181000
	C307.173401,415.461090 331.283203,383.203156 364.312775,357.445740
	C400.608765,329.141113 442.107971,313.026733 487.547363,306.590698
	C530.865051,300.455200 573.656433,302.839325 615.401062,315.978516
	C626.492859,319.469666 634.376160,319.089661 644.241760,312.079041
	C663.466187,298.417938 685.730896,291.909698 709.536438,291.705200
	C719.612305,291.618652 723.408936,296.573364 720.880005,306.462524
	C716.427063,323.875671 711.949402,341.284821 707.193970,358.616577
	C706.119690,362.531860 706.723389,365.091431 709.761658,367.795197
	C734.239319,389.578186 752.672729,415.523071 763.274414,446.716522
	C764.303894,449.745667 766.313110,450.806732 769.057007,451.395599
	C781.897949,454.151337 794.725342,456.971069 807.571411,459.702972
	C816.142273,461.525726 819.531677,465.023712 820.700317,473.710571
	C820.987732,475.847351 821.020935,478.030060 821.022949,480.191772
	C821.044983,504.523346 821.060181,528.854919 821.028992,553.186462
	C821.015015,564.078674 817.474182,568.474609 806.732971,570.823120
	C790.320374,574.411682 773.896301,577.950562 757.449524,581.378235
	C753.972473,582.102783 751.584106,583.570984 749.716736,586.806641
	C733.678589,614.596985 711.671509,636.783997 685.112061,654.541138
	C682.057983,656.583069 681.451965,658.488037 682.370239,661.912109
	C687.321106,680.372375 692.074036,698.885925 696.819275,717.400635
	C697.592529,720.417542 698.533569,723.388245 697.512390,726.694031
	C696.053406,731.417480 693.128418,734.180664 688.253662,734.374573
	C664.771301,735.308655 641.283508,735.031799 617.792603,734.612305
	C611.910461,734.507202 608.162109,731.727356 605.363281,726.898987
	C600.016602,717.675171 594.381287,708.613159 589.246643,699.274597
	C587.205566,695.562439 584.903198,694.619812 580.864441,695.410461
	C561.852112,699.132263 542.625488,700.860779 523.261230,700.157349
	C509.462067,699.656067 495.704865,698.390747 482.124512,695.671265
	C475.593811,694.363586 474.879791,695.235596 475.913300,701.894043
	C476.958344,708.626953 477.859619,715.392761 478.503540,722.174500
	C479.214447,729.661560 475.672455,734.300171 468.120880,734.439331
	C444.149292,734.881042 420.164124,735.607666 396.195770,734.292908
	C391.040955,734.010132 388.128510,730.617798 386.648407,726.000244
	C381.618958,710.309631 376.662384,694.595398 371.722748,678.876160
	C368.429413,668.395874 365.097839,657.925049 362.024872,647.379639
	C360.992188,643.835754 359.109467,641.249634 356.341614,638.888245
	C328.067596,614.765686 307.417114,585.468262 296.225220,549.800293
	C291.455841,534.600647 289.463409,518.957214 288.982056,503.110046
	C288.883331,499.858917 287.809113,498.273438 284.694489,497.558685
	C271.960510,494.636353 260.752777,488.503082 250.481201,480.632477
	C248.088120,478.798767 246.371994,478.656891 243.860382,480.240875
	C236.352203,484.976135 228.333496,488.634888 219.596512,490.491394
	C212.991882,491.894867 207.938446,489.168579 206.120712,483.363464
	C203.995514,476.576477 206.576157,470.842072 213.159042,468.430450
	C218.003311,466.655731 222.896484,465.069977 227.528061,462.729187
	C230.440231,461.257416 230.888260,459.705933 229.226425,456.850250
	C226.888123,452.832184 224.999069,448.552704 222.783539,444.018982
M590.474426,346.839844
	C577.858704,342.996521 564.902954,340.769196 551.837341,339.412628
	C531.050903,337.254425 510.296265,337.874115 489.653534,341.338379
	C470.701843,344.518829 452.316895,349.685852 434.626007,357.198242
	C428.640869,359.739838 426.108124,365.186737 428.007538,370.474884
	C430.187561,376.544312 435.558167,379.206329 442.081390,377.337616
	C444.156464,376.743103 446.162140,375.895874 448.180206,375.114349
	C491.862793,358.197479 536.346924,354.713196 581.794678,367.077118
	C587.974304,368.758301 593.171631,366.547394 595.694519,361.350311
	C598.269226,356.046326 596.729675,351.261108 590.474426,346.839844
M678.998901,452.286133
	C680.116150,453.725586 681.089783,455.310242 682.374084,456.580719
	C690.254761,464.376282 702.201538,463.679260 709.206787,455.087860
	C715.855103,446.934204 714.066040,434.722778 705.336914,428.673157
	C698.648132,424.037537 690.223877,424.191315 683.915344,429.064117
	C677.197876,434.252808 675.293762,442.388733 678.998901,452.286133
M263.622864,414.120392
	C261.430206,409.548950 257.698822,407.412750 252.755692,407.892365
	C247.385529,408.413483 243.797379,411.644989 242.492096,416.753632
	C239.703659,427.666931 244.859238,436.484833 250.010696,445.934631
	C255.233612,441.438873 258.770142,436.862091 261.317749,431.613800
	C263.872742,426.350372 265.934540,420.883484 263.622864,414.120392
z"/>
</svg>
